<svg width="64" height="64" viewBox="0 0 64 64" fill="none" xmlns="http://www.w3.org/2000/svg">
<path d="M62.8288 4.875L59.125 1.17125C58.7536 0.799724 58.3126 0.505004 57.8272 0.303928C57.3418 0.102852 56.8216 -0.000640869 56.2963 -0.000640869C55.7709 -0.000640869 55.2507 0.102852 54.7653 0.303928C54.28 0.505004 53.839 0.799724 53.4675 1.17125L47.6825 6.9625C47.1976 7.44611 46.8324 8.03641 46.6163 8.68625L45.0963 13.25L35.5638 22.7825C34.0438 21.6875 32.3763 20.815 30.5513 20.39C26.37 19.4175 22.1763 20.28 19.3163 23.14C18.1496 24.3115 17.2818 25.7464 16.7863 27.3238C16.0363 29.6438 13.885 31.41 11.5175 31.6313C8.55501 31.915 5.80126 33.0625 3.69126 35.1863C-2.01374 40.875 -0.987488 51.125 5.94751 58.0563C12.8825 64.9875 23.125 66 28.82 60.315C30.945 58.205 32.09 55.4525 32.3763 52.4763C32.5963 50.12 34.3625 47.96 36.68 47.2088C38.2576 46.7124 39.6929 45.8443 40.865 44.6775C43.7238 41.8175 44.5825 37.6325 43.615 33.4588C43.1913 31.6288 42.3188 29.9588 41.22 28.4338L50.75 18.9038L55.31 17.3838C55.9599 17.1676 56.5502 16.8024 57.0338 16.3175L62.825 10.5275C63.5743 9.77803 63.9956 8.76183 63.9963 7.70203C63.997 6.64223 63.5771 5.62547 62.8288 4.875V4.875ZM26 44C24.8133 44 23.6533 43.6481 22.6666 42.9888C21.6799 42.3295 20.9109 41.3925 20.4567 40.2961C20.0026 39.1997 19.8838 37.9933 20.1153 36.8295C20.3468 35.6656 20.9183 34.5965 21.7574 33.7574C22.5965 32.9182 23.6656 32.3468 24.8295 32.1153C25.9934 31.8838 27.1998 32.0026 28.2961 32.4567C29.3925 32.9109 30.3295 33.6799 30.9888 34.6666C31.6481 35.6533 32 36.8133 32 38C32 39.5913 31.3679 41.1174 30.2427 42.2426C29.1174 43.3679 27.5913 44 26 44Z" fill="#A2807C"/>
</svg>
